# xmcd
#
# Track frame offsets:
#	180
#	20644
#	48951
#	68302
#	92188
#	114687
#	144698
#	164693
#	188194
#	207519
#	226089
#	245575
#	271967
#	295794
#	315078
#
# Disc length: 4394 seconds
#
# Revision: 1
# Processed by: cddbd v1.5.2PL0 Copyright (c) Steve Scherf et al.
# Submitted via: EZCDAudioConverter 8.1.0.1
#
DISCID=d411280f
DTITLE=Mick Jagger - Best (1997 Virgin Records)
DYEAR=1997
DGENRE=Blues Rock Pop
TTITLE0=Mick Jagger - Ruthless People
TTITLE1=Mick Jagger - Lucky In Love
TTITLE2=Mick Jagger - Sweet Thing
TTITLE3=Mick Jagger - Just Another Night
TTITLE4=Mick Jagger - Secrets
TTITLE5=Mick Jagger - War Baby
TTITLE6=Mick Jagger - Hard Woman
TTITLE7=Mick Jagger - She's The Boss
TTITLE8=Mick Jagger - Running Out Of Luck
TTITLE9=Mick Jagger - Wired All Night
TTITLE10=Mick Jagger - Wandering Spirit
TTITLE11=Mick Jagger - Primitive Cool
TTITLE12=Mick Jagger - Party Doll
TTITLE13=Mick Jagger - Don't Tear Me Up
TTITLE14=Mick Jagger feat. David Bowie - Dancing In The Street
EXTD=
EXTT0=
EXTT1=
EXTT2=
EXTT3=
EXTT4=
EXTT5=
EXTT6=
EXTT7=
EXTT8=
EXTT9=
EXTT10=
EXTT11=
EXTT12=
EXTT13=
EXTT14=
PLAYORDER=
